<?xml version="1.0" encoding="utf-8" ?>
<svg xmlns="http://www.w3.org/2000/svg" xmlns:xlink="http://www.w3.org/1999/xlink" width="1023" height="1024">
	<path fill="#A9BE51" d="M765.287 595.204Q774.688 595.02 784.09 595.096C784.141 602.43 785.069 658.295 783.432 661.009Q774.018 661.314 764.603 661.038C764.609 653.458 763.918 597.897 765.105 595.193L765.193 595.659L765.287 595.204Z"/>
	<path fill="#A9BE51" d="M471.152 594.723C475.2 594.924 479.275 594.894 483.328 594.95C483.745 610.186 483.472 625.574 483.311 640.817C483.241 647.486 483.946 655.077 482.823 661.605C481.007 661.673 479.189 661.561 477.375 661.485L463.922 661.514L463.991 595.001L471.152 594.723Z"/>
	<path fill="#A9BE51" d="M811.505 595.085C817.948 594.659 824.573 594.947 831.037 594.951C830.961 611.675 831.751 628.898 830.649 645.561L857.953 645.559L857.852 661.145C853.632 661.796 848.271 661.135 843.925 661.111L811.483 660.995C811.741 639.039 811.576 617.044 811.505 595.085Z"/>
	<path fill="#A9BE51" d="M511.712 594.433L530.973 594.452C531.183 611.428 530.982 628.391 531.419 645.368L559.997 645.167C560.03 650.437 560.212 655.755 559.892 661.016C543.819 661.298 527.769 661.002 511.698 661.506L511.712 594.433Z"/>
	<path fill="#A9BE51" d="M687.258 594.628C693.768 594.267 700.411 594.531 706.934 594.535L743.038 594.566L743.071 610.074Q733.75 610.027 724.434 610.345L724.416 643.25L724.359 661.104C717.787 661.09 711.276 661.291 704.703 660.982C704.315 643.871 704.593 626.697 704.572 609.579C698.853 609.942 692.995 609.688 687.261 609.667C687.02 604.661 687.183 599.637 687.258 594.628Z"/>
	<path fill="#A9BE51" d="M382.629 594.574Q411.427 594.35 440.225 594.503C440.434 599.619 440.279 604.74 440.186 609.858L421.851 609.899C421.082 620.074 421.647 630.561 421.591 640.786Q421.687 650.966 421.549 661.146C414.982 661.547 408.382 661.432 401.805 661.439C400.845 644.406 401.85 626.981 402.085 609.916C395.632 609.718 389.138 609.879 382.681 609.904C382.437 604.801 382.577 599.68 382.629 594.574Z"/>
	<path fill="#A9BE51" d="M629.075 594.726L629.633 595.057C630.809 598.791 629.966 604.988 629.96 609.006L599.87 608.987L599.926 619.95L625.751 619.8C625.97 624.551 625.92 629.253 625.812 634.004Q613.02 633.807 600.227 634L600.186 646.013C610.457 645.838 620.754 645.944 631.026 645.92L630.958 651.875L630.979 661.329C614.154 660.76 597.354 661.397 580.534 661.195C579.888 639.175 580.484 616.978 580.518 594.941C596.696 594.57 612.893 595.195 629.075 594.726Z"/>
	<path fill="#A9BE51" d="M885.304 594.718L929.706 594.705Q929.917 601.856 929.702 609.007C920.267 610.241 909.522 609.503 899.986 609.465L900.004 620.169Q914.233 620.199 928.462 620.048L928.45 633.024C922.675 633.433 903.27 632.77 899.723 633.96L899.621 635.875C899.687 639.379 899.785 642.875 899.605 646.377C910.266 646.325 920.983 646.046 931.635 646.472L931.58 660.97C914.626 660.484 897.527 660.958 880.56 660.901C880.369 647.894 880.503 634.865 880.488 621.854C880.477 613.152 880.125 604.311 880.684 595.629C882.099 594.823 883.715 594.852 885.304 594.718Z"/>
	<path fill="#DAD9D9" d="M941.311 423.735L945.363 423.715Q945.517 434.34 945.161 444.96C941.313 444.626 937.353 444.161 933.493 444.522C924.338 445.378 919.535 450.663 914.046 457.338C913.857 470.717 914.303 484.076 914.41 497.45Q914.473 516.342 914.195 535.233C905.805 534.905 897.37 535.102 888.974 535.135L888.971 527.625L888.606 424.582L913.52 424.553C913.63 429.729 913.549 434.915 913.535 440.092C915.345 436.78 917.486 433.642 920.101 430.907C926.396 424.322 932.746 423.873 941.311 423.735Z"/>
	<path fill="#DAD9D9" d="M392.56 423.184C400.766 421.481 414.399 422.977 422.528 425.234C422.628 430.219 422.495 435.226 422.465 440.213C413.681 437.935 404.361 436.525 395.276 437.237C389.487 437.691 384.434 440.138 380.719 444.663C372.099 455.161 372.084 477.999 373.69 490.871C374.69 498.895 377.418 508.626 384.185 513.694C394.697 521.567 412.099 517.883 424.081 516.081L424.134 524.625L424.187 531.022C420.096 531.847 415.996 532.718 411.878 533.393C396.686 535.881 378.915 535.709 365.982 526.343C354.991 518.384 348.65 505.6 346.609 492.378C344.052 475.82 346.206 456.159 356.468 442.475C365.437 430.515 378.126 425.281 392.56 423.184Z"/>
	<path fill="#DAD9D9" d="M585.866 562.749Q640.782 562.429 695.698 562.736L931.91 562.437L931.576 569.294C910.401 570.071 888.972 569.421 867.775 569.426C813.331 569.437 758.776 568.71 704.35 569.954L461.235 570.141L390.063 570.07C379.025 570.073 367.808 570.64 356.793 570.144C356.551 567.761 356.59 565.343 356.55 562.949C365.463 562.487 374.539 562.832 383.466 562.836L434.241 562.869L585.866 562.749Z"/>
	<path fill="#DAD9D9" d="M656.012 398.198L677.457 398.133C677.734 407.007 677.543 415.941 677.519 424.822Q689.73 424.801 701.938 424.529C702.098 428.769 702.096 432.989 702.047 437.231C694.036 437.792 685.582 437.549 677.55 437.378C678.271 453.631 677.604 470.162 677.568 486.452C677.554 492.841 676.77 500.492 677.996 506.767C678.841 511.09 682.068 512.833 685.483 515.031C690.672 514.835 695.932 514.991 701.128 514.992C700.986 519.531 701.011 524.084 700.969 528.625L701.066 535.056C695.11 535.002 689.149 535.401 683.191 535.464C674.752 535.554 667.03 535.058 660.711 528.654C657.339 525.236 654.283 520.316 653.238 515.607C651.582 508.145 652.302 499.447 652.226 491.779C652.043 473.524 652.369 455.289 652.343 437.035L636.283 437.088L636.268 424.656L651.835 424.553C651.85 416.165 651.282 407.468 651.95 399.12C653.094 398.168 654.592 398.292 656.012 398.198Z"/>
	<path fill="#DAD9D9" d="M586.293 423.213C589.186 423.055 592.119 422.968 595.017 422.967C603.94 422.966 612.302 424.977 618.786 431.538C622.878 435.68 625.607 440.828 627.007 446.462C629.988 458.467 628.783 471.955 628.789 484.283L628.67 533.463L600.945 533.665C600.747 516.415 600.962 499.138 600.972 481.885C600.977 473.552 601.462 464.938 600.662 456.654C600.327 453.181 599.542 449.648 598.014 446.499C596.42 443.214 593.967 441.032 590.462 439.953C584.235 438.035 578.376 439.336 572.746 442.161C569.834 444.221 567.425 446.501 564.924 449.035C563.737 477.064 564.625 505.566 564.803 533.63C555.548 533.688 546.288 533.813 537.033 533.76L537.013 424.462C545.947 424.236 554.92 424.398 563.858 424.391L563.932 434.957C571.261 428.999 577.009 425.315 586.293 423.213Z"/>
	<path fill="#DAD9D9" d="M474.171 422.197C475.29 422.074 476.477 422.093 477.604 422.09C488.243 422.059 499.93 424.877 507.597 432.682C520.863 446.186 520.143 465.323 519.965 482.872C498.723 482.422 477.284 482.641 456.027 482.881C455.883 491.429 456.333 500.243 461.264 507.571C465.22 513.45 471.289 516.773 478.115 518.146C489.435 520.424 502.092 518.95 511.812 512.542L516.953 509.073C517.347 515.527 517.266 521.909 517.119 528.369C512.256 531.295 507.432 532.676 501.838 533.532C489.79 535.375 471.529 535.558 459.907 531.929C456.309 530.805 452.842 528.756 449.836 526.505C439.399 518.687 434.444 507.694 432.657 495.005C430.155 477.242 431.334 451.367 442.635 436.702C450.69 426.249 461.719 423.794 474.171 422.197ZM474.582 435.109C468.94 436.365 464.486 438.736 461.275 443.742C456.935 450.504 455.632 460.522 455.989 468.401C463.411 467.901 470.938 468.003 478.375 468.052L497.01 468.278C496.528 458.167 496.193 446.417 488.17 438.956C484.581 435.618 480.481 434.727 475.715 435.022Q475.148 435.059 474.582 435.109Z"/>
	<path fill="#DAD9D9" d="M822.499 423.112C825.955 422.673 829.762 422.784 833.252 422.847C843.707 423.037 853.488 426.902 860.789 434.485C873.642 447.837 873.237 466.56 872.931 483.83C849.973 483.204 826.838 483.931 803.857 483.829C804.364 487.845 804.944 491.795 806.236 495.646C809.154 504.345 815.029 511.976 823.364 516.051C834.732 521.61 849.131 519.566 860.653 515.684C863.087 514.454 865.642 513.582 868.203 512.659C868.608 518.388 868.432 524.187 868.427 529.928C863.512 532.781 858.051 534.674 852.531 535.958C836.627 539.657 817.002 538.9 802.884 529.9C791.293 522.511 784.219 510.007 781.332 496.802C777.856 480.905 780.02 458.92 789.005 445.129C797.479 432.122 807.592 426.347 822.499 423.112ZM826.608 434.712C819.866 436.124 814.987 439.405 811.158 445.164C806.456 452.238 804.782 460.823 804.047 469.154L826.25 469.214C833.363 469.198 840.582 468.944 847.674 469.473C847.421 459.358 847.454 446.96 839.733 439.276C836.852 436.41 832.392 434.421 828.283 434.563C827.723 434.582 827.165 434.652 826.608 434.712Z"/>
	<path fill="#DAD9D9" d="M95.3864 360.04C110.256 359.549 125.226 359.884 140.105 359.887L219.213 359.913L279.309 359.837C289.652 359.811 300.189 359.336 310.508 359.859C313.535 360.012 316.075 360.415 318.731 361.969C322.82 364.36 326.463 368.169 327.585 372.857C329.783 382.042 328.523 394.576 328.513 404.078L328.58 452.729L328.594 550.325C328.548 563.544 329.321 577.135 328.624 590.302C328.462 593.372 327.754 595.805 326.115 598.423C323.201 603.078 318.377 605.807 313.127 606.962C295.942 607.415 278.672 607.048 261.477 607.046L163.721 607.046L120.486 607.071C113.304 607.074 104.471 607.982 97.4845 606.47C92.2462 605.337 87.1012 601.008 84.4167 596.484Q83.7834 595.413 83.2791 594.276Q82.7749 593.138 82.4065 591.95Q82.0382 590.762 81.8107 589.538Q81.5833 588.315 81.4999 587.074C81.218 583.299 81.6148 579.293 81.6765 575.5Q81.8131 565.266 81.7719 555.031L81.4169 428.696C81.3807 418.385 80.1647 380.797 81.9866 374.101C83.7162 367.746 89.9611 363.149 95.3864 360.04ZM248.485 369.335C248.498 389.596 248.847 409.916 248.391 430.169C247.442 431.373 246.309 432.822 245.102 433.772C244.011 434.631 243.236 434.523 241.944 434.341C240.367 433.262 239.548 431.987 238.498 430.411L238.509 369.39L170.048 369.359C170.042 389.479 170.697 409.875 169.677 429.955C168.404 431.874 166.988 433.5 165.439 435.193C163.421 433.284 161.833 431.338 160.198 429.106C159.311 409.395 160.093 389.186 160.172 369.436C139.549 369.35 118.71 368.749 98.1073 369.501C95.1919 371.241 93.407 373.099 91.5121 375.916C90.4963 396.669 92.6371 417.733 91.166 438.441C91.0078 441.908 90.996 445.319 91.1057 448.788C91.4411 471.904 90.3739 495.301 91.4223 518.366C91.4635 521.586 91.5478 524.812 91.4725 528.03C91.1108 541.104 91.3645 554.245 91.3039 567.326C91.2723 574.168 90.3633 581.794 91.4374 588.536C91.7597 590.56 92.3703 592.355 93.8553 593.818C95.5113 595.45 97.8167 596.381 100.082 596.744C106.429 597.763 113.806 597.073 120.279 597.059L160.165 597.062Q160.487 566.876 160.449 536.689L165.728 531.143C167.186 532.461 168.558 533.88 169.954 535.263L170.082 596.936L238.511 596.89Q238.403 566.351 238.663 535.816C239.077 535.213 239.491 534.606 239.932 534.022C240.931 532.701 241.548 532.281 243.187 532.086C245.287 532.866 246.896 535.075 248.401 536.691L248.526 597.028L288.728 597.009C295.361 597.007 302.391 597.553 308.964 596.84C311.258 596.59 314.818 595.963 316.635 594.413C317.869 593.361 318.011 592.16 318.223 590.617C319.139 583.947 318.534 576.541 318.537 569.806L318.525 528.334C299.173 528.303 276.767 529.112 257.779 527.801C255.845 526.107 254.15 524.17 252.41 522.281C253.692 520.866 255.037 519.637 256.484 518.392C277.141 518.069 297.867 518.384 318.53 518.395L318.511 448.923L255.94 448.52L251.067 444.405C253.084 442.752 254.861 440.867 256.675 439L318.577 439.121C318.805 420.996 318.657 402.823 318.667 384.693C318.67 380.207 318.614 375.225 315.074 371.928C313.377 370.348 311.16 369.499 308.887 369.182C302.816 368.337 295.793 369.08 289.638 369.125L248.485 369.335Z"/>
	<path fill="#2C3470" d="M248.485 369.335L289.638 369.125C295.793 369.08 302.816 368.337 308.887 369.182C311.16 369.499 313.377 370.348 315.074 371.928C318.614 375.225 318.67 380.207 318.667 384.693C318.657 402.823 318.805 420.996 318.577 439.121L256.675 439C254.861 440.867 253.084 442.752 251.067 444.405L255.94 448.52L318.511 448.923L318.53 518.395C297.867 518.384 277.141 518.069 256.484 518.392C255.037 519.637 253.692 520.866 252.41 522.281C254.15 524.17 255.845 526.107 257.779 527.801C276.767 529.112 299.173 528.303 318.525 528.334L318.537 569.806C318.534 576.541 319.139 583.947 318.223 590.617C318.011 592.16 317.869 593.361 316.635 594.413C314.818 595.963 311.258 596.59 308.964 596.84C302.391 597.553 295.361 597.007 288.728 597.009L248.526 597.028L248.401 536.691C246.896 535.075 245.287 532.866 243.187 532.086C241.548 532.281 240.931 532.701 239.932 534.022C239.491 534.606 239.077 535.213 238.663 535.816Q238.403 566.353 238.511 596.89L170.082 596.936L169.954 535.263C168.558 533.88 167.186 532.461 165.728 531.143L160.449 536.689Q160.487 566.876 160.165 597.062L120.279 597.059C113.806 597.073 106.429 597.763 100.082 596.744C97.8167 596.381 95.5113 595.45 93.8553 593.818C92.3703 592.355 91.7597 590.56 91.4374 588.536C90.3633 581.794 91.2723 574.168 91.3039 567.326C91.3645 554.245 91.1108 541.104 91.4725 528.03C91.5478 524.812 91.4635 521.586 91.4223 518.366C90.3739 495.301 91.4411 471.904 91.1057 448.788C90.996 445.319 91.0078 441.908 91.166 438.441C92.6371 417.733 90.4963 396.669 91.5121 375.916C93.407 373.099 95.1919 371.241 98.1073 369.501C118.71 368.749 139.549 369.35 160.172 369.436C160.093 389.186 159.311 409.395 160.198 429.106C161.833 431.338 163.421 433.284 165.439 435.193C166.988 433.5 168.404 431.874 169.677 429.955C170.697 409.875 170.042 389.479 170.048 369.359L238.509 369.39L238.498 430.411C239.548 431.987 240.367 433.262 241.944 434.341C243.236 434.523 244.011 434.631 245.102 433.772C246.309 432.822 247.442 431.373 248.391 430.169C248.847 409.916 248.498 389.596 248.485 369.335ZM178.156 438.653C176.01 439.839 174.35 441.33 172.553 442.966C176.281 447.422 180.895 451.265 185.038 455.341Q195.031 465.116 204.621 475.285C208.096 469.923 213.131 466.448 216.902 461.451C222.049 456.384 231.004 449.4 234.63 443.559C234.331 441.738 232.546 439.935 231.442 438.486C213.682 438.768 195.904 438.197 178.156 438.653ZM243.427 451.802L242.886 452.509C236.235 461.088 227.705 469.093 220.023 476.771C218.218 478.575 214.777 480.802 213.527 482.826C213.327 483.15 213.338 483.563 213.244 483.931C217.381 490.386 226.873 496.059 232.104 502.752C236.068 507.201 240.235 511.673 244.822 515.492L248.257 512.363C249.1 493.741 247.833 475.011 248.59 456.383C247.084 454.767 245.49 452.701 243.427 451.802ZM204.222 493.133C200.211 497.595 195.627 501.611 191.35 505.829C185.448 511.648 179.671 517.732 173.531 523.292Q176.102 525.765 178.579 528.333L205.75 528.315C214.433 528.312 223.133 528.423 231.814 528.28L235.641 523.221C227.413 517.06 220.386 509.122 213.216 501.771C210.365 498.848 207.569 495.477 204.222 493.133ZM163.296 451.717C160.425 454.291 160.399 455.512 160.213 459.192C159.768 468.006 160.278 476.928 160.326 485.755C160.372 494.187 159.938 502.805 160.435 511.213C161.94 512.563 163.418 513.962 164.996 515.226C169.005 510.11 173.979 505.82 178.125 500.802C183.237 495.698 190.021 490.558 194.166 484.764C194.011 483.174 193.326 482.394 192.319 481.14C189.485 477.612 185.829 474.625 182.697 471.347C176.916 465.297 171.404 458.334 165.057 452.91C164.52 452.451 163.947 451.999 163.296 451.717ZM91.166 438.441C91.0078 441.908 90.996 445.319 91.1057 448.788C111.552 447.741 132.316 448.712 152.811 448.43L156.938 444.112L152.335 438.497L91.166 438.441ZM91.4223 518.366C91.4635 521.586 91.5478 524.812 91.4725 528.03Q121.77 528.231 152.067 528.122Q155.013 524.981 157.898 521.784C156.844 520.628 155.695 519.571 154.56 518.496C133.517 518.25 112.465 518.693 91.4223 518.366Z"/>
	<path fill="#A9BE51" d="M257.454 461.047C258.588 462.024 259.667 463.107 260.99 463.814C261.22 470.652 261.276 477.486 261.454 484.324C261.565 488.627 262.42 493.46 261.548 497.672C260.18 499.76 259.162 502.945 257.42 504.578C257.018 490.155 256.968 475.465 257.454 461.047Z"/>
	<path fill="#A9BE51" d="M257.473 542.254C259.447 542.579 261.439 542.861 263.396 543.274L262.05 543.805C260.889 547.309 261.264 572.94 261.875 577.391C260.258 579.975 259.177 583.09 257.502 585.525C256.876 571.182 257.393 556.614 257.473 542.254Z"/>
	<path fill="#C2CB8D" d="M178.929 379.843C178.924 378.57 178.722 377.31 179.561 376.262C185.648 375.594 192.102 376.057 198.229 376.104L230.096 376.238L230.035 384.328C215.202 385.01 200.101 384.455 185.232 384.509C183.039 383.095 180.999 381.429 178.929 379.843Z"/>
	<path fill="#C2CB8D" d="M100.429 380.135C100.493 378.692 100.348 377.803 101.126 376.567C106.749 374.953 142.817 376.143 151.499 376.232L151.386 384.025C148.959 385.354 111.559 384.517 105.587 384.513C103.609 383.218 102.082 381.804 100.429 380.135Z"/>
	<path fill="#C2CB8D" d="M257.458 376.26C274.785 376.313 292.161 376.088 309.481 376.488L309.518 384.316C300.23 384.73 290.867 384.525 281.568 384.526C275.402 384.527 268.967 384.898 262.843 384.292C261.363 383.477 259.083 383.116 257.43 382.633L257.458 376.26Z"/>
	<path fill="#C2CB8D" d="M100.398 538.949C100.423 537.595 100.081 536.458 101.075 535.478C105.39 534.415 145.188 534.505 151.02 535.175C151.716 536.513 151.495 537.908 151.49 539.392C149.985 540.413 148.826 542.118 147.67 543.512C133.46 543.556 119.241 543.7 105.032 543.566C103.14 542.197 101.824 540.794 100.398 538.949Z"/>
	<path fill="#C2CB8D" d="M100.569 458.395C100.64 457.001 100.443 456.29 101.35 455.196C107.27 454.602 113.468 454.95 119.426 454.961L151.578 454.996L151.415 462.067C148.359 464.639 111.594 463.543 105.142 463.479C102.688 462.036 101.31 461.232 100.569 458.395Z"/>
	<path fill="#C2CB8D" d="M257.48 535.1L309.497 535.103L309.542 543.433C294.205 543.546 278.714 543.927 263.396 543.274C261.439 542.861 259.447 542.579 257.473 542.254L257.48 535.1Z"/>
	<path fill="#C2CB8D" d="M257.424 455.395C274.79 455.412 292.205 455.147 309.565 455.49L309.576 464.25C293.493 464.212 277.014 464.9 260.99 463.814C259.667 463.107 258.588 462.024 257.454 461.047L257.424 455.395Z"/>
	<path fill="#6C9736" d="M309.599 564.39C310.009 572.175 309.846 580.025 309.865 587.821L274.645 587.953C269.213 587.96 262.972 588.552 257.662 587.686C257.21 586.568 257.316 586.624 257.502 585.525C259.177 583.09 260.258 579.975 261.875 577.391C267.178 576.556 296.758 576.421 302.27 577.37C305.898 577.995 307.476 580.785 309.356 583.618C309.353 577.225 309.173 570.768 309.599 564.39Z"/>
	<path fill="#6C9736" d="M179.021 587.982C179.023 575.829 178.65 563.438 179.404 551.312C180.079 561.816 179.264 572.408 179.42 582.926C181.253 581.027 183.046 579.064 185.026 577.317C198.115 576.336 211.6 576.971 224.738 577.062C226.096 578.419 228.206 581.415 229.935 581.971L230.007 587.948L179.021 587.982Z"/>
	<path fill="#6C9736" d="M257.13 414.74C257.484 418.297 257.537 421.839 257.592 425.411C258.66 422.516 259.755 419.868 261.601 417.354C268.015 417.349 303.842 416.165 306.624 419.203C307.72 420.399 308.634 421.882 309.547 423.221C309.798 424.886 309.733 426.694 309.796 428.379C292.327 428.268 274.828 428.744 257.366 428.299C257.139 423.765 257.043 419.279 257.13 414.74Z"/>
	<path fill="#6C9736" d="M309.592 480.49C310.152 489.93 309.953 499.558 309.922 509.018C292.401 509.02 274.817 509.43 257.302 509.151C257.215 507.587 256.975 506.095 257.42 504.578C259.162 502.945 260.18 499.76 261.548 497.672C271.302 497.39 296.284 496.382 304.835 498.006C306.457 498.314 307.93 499.051 309.392 499.789C309.371 493.377 309.155 486.886 309.592 480.49Z"/>
	<path fill="#8CAF37" d="M260.99 463.814C277.014 464.9 293.493 464.212 309.576 464.25C309.6 469.605 309.899 475.155 309.592 480.49C309.155 486.886 309.371 493.377 309.392 499.789C307.93 499.051 306.457 498.314 304.835 498.006C296.284 496.382 271.302 497.39 261.548 497.672C262.42 493.46 261.565 488.627 261.454 484.324C261.276 477.486 261.22 470.652 260.99 463.814Z"/>
	<path fill="#8CAF37" d="M263.396 543.274C278.714 543.927 294.205 543.546 309.542 543.433Q309.739 553.911 309.599 564.39C309.173 570.768 309.353 577.225 309.356 583.618C307.476 580.785 305.898 577.995 302.27 577.37C296.758 576.421 267.178 576.556 261.875 577.391C261.264 572.94 260.889 547.309 262.05 543.805L263.396 543.274Z"/>
	<path fill="#8CAF37" d="M257.43 382.633C259.083 383.116 261.363 383.477 262.843 384.292C268.967 384.898 275.402 384.527 281.568 384.526C290.867 384.525 300.23 384.73 309.518 384.316C309.661 397.259 309.857 410.284 309.547 423.221C308.634 421.882 307.72 420.399 306.624 419.203C303.842 416.165 268.015 417.349 261.601 417.354C259.755 419.868 258.66 422.516 257.592 425.411C257.537 421.839 257.484 418.297 257.13 414.74Q257.004 398.684 257.43 382.633Z"/>
	<path fill="#A9BE51" d="M257.43 382.633C259.083 383.116 261.363 383.477 262.843 384.292L261.815 384.656C259.989 393.074 262.363 407.789 261.601 417.354C259.755 419.868 258.66 422.516 257.592 425.411C257.537 421.839 257.484 418.297 257.13 414.74Q257.004 398.684 257.43 382.633Z"/>
	<path fill="#8CAF37" d="M179.483 539.799C179.419 538.297 179.165 536.787 179.892 535.415C181.885 534.608 225.099 534.335 229.474 535.291L229.863 536.249Q230.022 559.11 229.935 581.971C228.206 581.415 226.096 578.419 224.738 577.062C211.6 576.971 198.115 576.336 185.026 577.317C183.046 579.064 181.253 581.027 179.42 582.926C179.264 572.408 180.079 561.816 179.404 551.312C179.248 547.488 179.417 543.627 179.483 539.799Z"/>
	<path fill="#C2CB8D" d="M179.483 539.799C179.419 538.297 179.165 536.787 179.892 535.415C181.885 534.608 225.099 534.335 229.474 535.291L229.863 536.249L229.507 543.142C220.298 543.51 192.892 544.6 184.892 543.063C183.227 542.743 181.732 542.03 180.495 540.862C180.139 540.526 179.814 540.159 179.483 539.799Z"/>
	<path fill="#8CAF37" d="M100.429 380.135C102.082 381.804 103.609 383.218 105.587 384.513C111.559 384.517 148.959 385.354 151.386 384.025Q151.442 403.967 151.102 423.907C151.043 425.622 151.301 426.675 150.25 428.067C149.411 428.441 148.738 428.708 147.808 428.745C144.297 428.887 102.067 428.758 100.97 428.406C100.824 428.359 100.687 428.283 100.546 428.222L100.336 426.624C101.048 411.24 100.429 395.55 100.429 380.135Z"/>
	<path fill="#6C9736" d="M106.525 417.148C120.079 417.795 133.656 416.629 147.223 417.58Q149.208 420.715 151.102 423.907C151.043 425.622 151.301 426.675 150.25 428.067C149.411 428.441 148.738 428.708 147.808 428.745C144.297 428.887 102.067 428.758 100.97 428.406C100.824 428.359 100.687 428.283 100.546 428.222L100.336 426.624C103.076 424.382 104.754 420.212 106.525 417.148Z"/>
	<path fill="#8CAF37" d="M178.929 379.843C180.999 381.429 183.039 383.095 185.232 384.509C200.101 384.455 215.202 385.01 230.035 384.328L230.033 423.145L230.015 428.29L195.305 428.283C190.286 428.281 184.372 428.86 179.474 428.036C178.982 426.976 179.068 427.456 179.022 426.643C178.508 411.093 178.765 395.406 178.929 379.843Z"/>
	<path fill="#6C9736" d="M187.059 417.784C198.809 415.816 212.125 417.023 224.067 417.072C226.6 418.707 228.22 420.796 230.033 423.145L230.015 428.29L195.305 428.283C190.286 428.281 184.372 428.86 179.474 428.036C178.982 426.976 179.068 427.456 179.022 426.643C181.349 423.253 183.965 420.476 187.059 417.784Z"/>
	<path fill="#8CAF37" d="M151.49 539.392L151.318 576.108L151.357 587.892L100.112 587.998C100.048 572.829 99.0892 556.902 100.427 541.799L100.398 538.949C101.824 540.794 103.14 542.197 105.032 543.566C119.241 543.7 133.46 543.556 147.67 543.512C148.826 542.118 149.985 540.413 151.49 539.392Z"/>
	<path fill="#6C9736" d="M100.112 587.998C100.048 572.829 99.0892 556.902 100.427 541.799C101.497 556.446 100.649 571.729 100.676 586.437C103.078 583.378 105.324 580.243 107.536 577.043C115.09 577.002 143.383 575.215 147.789 579.772C149.057 581.085 150.017 582.908 150.962 584.465C150.94 582.176 150.434 578.132 151.318 576.108L151.357 587.892L100.112 587.998Z"/>
	<path fill="#8CAF37" d="M100.569 458.395C101.31 461.232 102.688 462.036 105.142 463.479C111.594 463.543 148.359 464.639 151.415 462.067C151.445 469.334 152.538 504.352 150.894 509.068C141.122 508.759 131.301 508.942 121.523 508.95C114.812 508.956 107.851 508.597 101.178 509.176C99.535 507.197 100.504 465.393 100.569 458.395Z"/>
	<path fill="#6C9736" d="M106.793 498.499C115.605 498.333 139.38 496.912 146.569 498.845C151.371 500.136 148.688 505.602 150.506 508.497C150.628 508.692 150.765 508.878 150.894 509.068C141.122 508.759 131.301 508.942 121.523 508.95C114.812 508.956 107.851 508.597 101.178 509.176C103.438 505.923 104.552 501.884 106.793 498.499Z"/>
</svg>
